<svg width="17" height="17" viewBox="0 0 17 17" fill="none" xmlns="http://www.w3.org/2000/svg">
<g clip-path="url(#clip0_33_914)">
<path d="M15.508 1.49201C14.188 0.172014 12.04 0.172014 10.72 1.49201L8.44802 3.76401C8.25302 3.95901 8.25302 4.27601 8.44802 4.47101C8.64302 4.66601 8.96002 4.66601 9.15502 4.47101L11.427 2.19901C12.357 1.26901 13.87 1.26901 14.8 2.19901C15.251 2.65001 15.499 3.24901 15.499 3.88601C15.499 4.52301 15.251 5.12201 14.8 5.57301L11.044 9.32901C10.114 10.259 8.60102 10.259 7.67102 9.32901C7.59202 9.25001 7.52302 9.17101 7.46202 9.09001C7.29602 8.86901 6.98302 8.82401 6.76202 8.99001C6.54102 9.15601 6.49602 9.46901 6.66202 9.69001C6.75202 9.80901 6.85002 9.92301 6.96302 10.036C7.62302 10.696 8.49002 11.026 9.35702 11.026C10.224 11.026 11.091 10.696 11.751 10.036L15.507 6.28001C16.147 5.64001 16.499 4.79001 16.499 3.88601C16.499 2.98201 16.147 2.13201 15.507 1.49201H15.508Z" fill="#F0DA2F"/>
<path d="M7.844 12.529L5.572 14.801C4.642 15.731 3.129 15.731 2.199 14.801C1.748 14.35 1.5 13.751 1.5 13.114C1.5 12.477 1.748 11.878 2.199 11.427L5.955 7.67099C6.405 7.22099 7.004 6.97299 7.641 6.97199C8.278 6.97199 8.877 7.21999 9.328 7.67099C9.407 7.75099 9.476 7.82899 9.537 7.90999C9.703 8.13099 10.016 8.17599 10.237 8.00999C10.458 7.84399 10.503 7.53099 10.337 7.30999C10.247 7.19099 10.149 7.07799 10.035 6.96399C9.396 6.32499 8.546 5.97299 7.641 5.97299C6.737 5.97299 5.887 6.32499 5.248 6.96399L1.492 10.721C0.852 11.361 0.5 12.211 0.5 13.115C0.5 14.019 0.852 14.869 1.492 15.509C2.152 16.169 3.019 16.499 3.886 16.499C4.753 16.499 5.62 16.169 6.28 15.509L8.552 13.237C8.747 13.042 8.747 12.725 8.552 12.53C8.357 12.335 8.04 12.335 7.845 12.53L7.844 12.529Z" fill="#F0DA2F"/>
</g>
<defs>
<clipPath id="clip0_33_914">
<rect width="17" height="17" fill="white"/>
</clipPath>
</defs>
</svg>
