<svg width="13" height="13" viewBox="0 0 13 13" fill="none" xmlns="http://www.w3.org/2000/svg">
<rect width="13" height="13" rx="2" fill="#F0DA2F"/>
<path d="M11 4.05237C11.0002 4.19061 10.9743 4.32753 10.9239 4.45524C10.8735 4.58296 10.7996 4.69897 10.7064 4.7966L6.04406 9.69158C5.95097 9.78936 5.84045 9.86692 5.7188 9.91984C5.59716 9.97276 5.46678 10 5.3351 10C5.20343 10 5.07305 9.97276 4.9514 9.91984C4.82976 9.86692 4.71923 9.78936 4.62615 9.69158L2.30348 7.25317C2.20827 7.15591 2.13242 7.03976 2.08032 6.91146C2.02823 6.78316 2.00093 6.64527 2.00002 6.5058C1.99911 6.36633 2.0246 6.22806 2.07502 6.09902C2.12543 5.96998 2.19976 5.85274 2.29369 5.75412C2.38762 5.6555 2.49927 5.57746 2.62217 5.52452C2.74507 5.47159 2.87676 5.44483 3.00959 5.44578C3.14242 5.44674 3.27375 5.4754 3.39595 5.5301C3.51814 5.58479 3.62877 5.66444 3.7214 5.7644L5.33496 7.45859L9.28847 3.30814C9.4287 3.16099 9.60733 3.06079 9.80178 3.02021C9.99623 2.97962 10.1978 3.00047 10.381 3.08012C10.5641 3.15976 10.7207 3.29464 10.8309 3.46769C10.9411 3.64074 10.9999 3.84421 11 4.05237Z" fill="white"/>
</svg>
