<svg width="11" height="11" viewBox="0 0 11 11" fill="none" xmlns="http://www.w3.org/2000/svg">
<g clip-path="url(#clip0_39_1610)">
<path d="M6.50777 5.509L10.791 1.22569C11.0697 0.94708 11.0697 0.496604 10.791 0.217992C10.5123 -0.0606197 10.0619 -0.0606197 9.78325 0.217992L5.49994 4.5013L1.21676 0.217992C0.938014 -0.0606197 0.487668 -0.0606197 0.209057 0.217992C-0.0696855 0.496604 -0.0696855 0.94708 0.209057 1.22569L4.49224 5.509L0.209057 9.79232C-0.0696855 10.0709 -0.0696855 10.5214 0.209057 10.8C0.347906 10.939 0.530471 11.0088 0.712907 11.0088C0.895342 11.0088 1.07778 10.939 1.21676 10.8L5.49994 6.5167L9.78325 10.8C9.92223 10.939 10.1047 11.0088 10.2871 11.0088C10.4695 11.0088 10.652 10.939 10.791 10.8C11.0697 10.5214 11.0697 10.0709 10.791 9.79232L6.50777 5.509Z" fill="#040406"/>
</g>
<defs>
<clipPath id="clip0_39_1610">
<rect width="11" height="11" fill="white"/>
</clipPath>
</defs>
</svg>
