<svg width="35" height="35" viewBox="0 0 35 35" fill="none" xmlns="http://www.w3.org/2000/svg">
<circle cx="17.5" cy="17.5" r="17.5" fill="#F0DA2F"/>
<g clip-path="url(#clip0_2013_2)">
<path d="M11.3548 16.5146C11.1251 15.8942 10.9588 15.2607 11.009 14.5875C11.0406 14.1731 11.1964 13.8193 11.5 13.529C11.83 13.2175 12.1415 12.8901 12.4662 12.5733C12.8885 12.1562 13.4191 12.1589 13.8415 12.5733C14.1029 12.8294 14.3616 13.0907 14.6203 13.3521C14.871 13.6029 15.1245 13.8537 15.3752 14.1071C15.8161 14.5532 15.8187 15.0733 15.3779 15.5167C15.0611 15.8335 14.747 16.1529 14.4249 16.4644C14.3404 16.5463 14.3325 16.6149 14.3774 16.7179C14.5886 17.2247 14.8948 17.6761 15.238 18.0985C15.9296 18.9485 16.711 19.7035 17.6429 20.2869C17.8435 20.411 18.0626 20.5034 18.2711 20.6169C18.3794 20.675 18.4507 20.6565 18.5378 20.5667C18.8519 20.242 19.174 19.9226 19.496 19.6032C19.9184 19.1861 20.4464 19.1835 20.8687 19.6032C21.3861 20.1153 21.9009 20.6301 22.413 21.1475C22.8433 21.5804 22.8407 22.111 22.4078 22.5466C22.1147 22.8423 21.8059 23.1221 21.5313 23.431C21.1301 23.8797 20.6232 24.0276 20.0477 23.9959C19.2083 23.951 18.4348 23.6712 17.6877 23.3095C16.0299 22.5044 14.615 21.3877 13.4297 19.9781C12.5533 18.9327 11.83 17.7976 11.3548 16.5146ZM23.9996 17.4597C23.9996 13.8985 21.101 11 17.5399 11V12.2302C20.4226 12.2302 22.7694 14.577 22.7694 17.4597H23.9996ZM20.4622 17.4597H21.6924C21.6924 15.1709 19.8286 13.3072 17.5399 13.3072V14.5374C18.3213 14.5374 19.0552 14.841 19.6069 15.3927C20.1586 15.9444 20.4622 16.6783 20.4622 17.4597Z" fill="white"/>
</g>
<defs>
<clipPath id="clip0_2013_2">
<rect x="11" y="11" width="13" height="13" fill="white"/>
</clipPath>
</defs>
</svg>
