<svg width="35" height="35" viewBox="0 0 35 35" fill="none" xmlns="http://www.w3.org/2000/svg">
<g clip-path="url(#clip0_13_413)">
<path d="M17.5 35C27.165 35 35 27.165 35 17.5C35 7.83502 27.165 0 17.5 0C7.83502 0 0 7.83502 0 17.5C0 27.165 7.83502 35 17.5 35Z" fill="#25D366"/>
<path d="M25.2159 9.78409C23.3951 7.9452 20.9772 6.81746 18.3982 6.60431C15.8192 6.39115 13.249 7.1066 11.1511 8.62162C9.05312 10.1366 7.56563 12.3515 6.95689 14.8666C6.34815 17.3818 6.65823 20.0317 7.8312 22.3384L6.67978 27.9284C6.66783 27.9841 6.6675 28.0416 6.67879 28.0973C6.69008 28.1531 6.71276 28.206 6.74541 28.2526C6.79323 28.3233 6.8615 28.3778 6.9411 28.4087C7.02069 28.4396 7.10783 28.4455 7.19086 28.4256L12.6696 27.127C14.9697 28.2703 17.6009 28.5604 20.095 27.9458C22.589 27.3312 24.7841 25.8517 26.2896 23.7705C27.7952 21.6893 28.5136 19.1415 28.317 16.5804C28.1203 14.0193 27.0215 11.611 25.2159 9.78409ZM23.5076 23.4182C22.2479 24.6744 20.6257 25.5036 18.8697 25.7891C17.1136 26.0745 15.3123 25.8017 13.7196 25.0091L12.9559 24.6313L9.59711 25.4267L9.60705 25.3849L10.3031 22.0043L9.92921 21.2665C9.11538 19.6682 8.82829 17.8533 9.10907 16.0818C9.38985 14.3103 10.2241 12.6732 11.4923 11.4048C13.0858 9.81182 15.2467 8.91692 17.5 8.91692C19.7532 8.91692 21.9141 9.81182 23.5076 11.4048C23.5212 11.4204 23.5358 11.435 23.5514 11.4486C25.1251 13.0457 26.0037 15.2002 25.9955 17.4424C25.9873 19.6846 25.093 21.8326 23.5076 23.4182Z" fill="white"/>
<path d="M23.2093 20.9384C22.7977 21.5867 22.1474 22.3801 21.3301 22.577C19.8982 22.923 17.7008 22.5889 14.9664 20.0395L14.9326 20.0097C12.5283 17.7804 11.9039 15.925 12.0551 14.4534C12.1386 13.6182 12.8346 12.8625 13.4212 12.3693C13.514 12.2902 13.624 12.2338 13.7424 12.2048C13.8608 12.1757 13.9844 12.1748 14.1033 12.202C14.2221 12.2293 14.3329 12.2839 14.4269 12.3617C14.5208 12.4394 14.5953 12.5381 14.6443 12.6497L15.5292 14.6384C15.5867 14.7673 15.608 14.9095 15.5909 15.0496C15.5737 15.1897 15.5187 15.3226 15.4318 15.4338L14.9843 16.0145C14.8883 16.1344 14.8304 16.2803 14.818 16.4334C14.8056 16.5865 14.8393 16.7398 14.9147 16.8736C15.1653 17.3131 15.7658 17.9594 16.432 18.558C17.1798 19.2341 18.009 19.8526 18.534 20.0634C18.6745 20.1208 18.829 20.1348 18.9775 20.1036C19.126 20.0724 19.2617 19.9974 19.3673 19.8884L19.8863 19.3653C19.9865 19.2666 20.111 19.1962 20.2472 19.1612C20.3835 19.1263 20.5266 19.1281 20.6619 19.1665L22.7639 19.7631C22.8798 19.7986 22.9861 19.8603 23.0746 19.9432C23.1631 20.0261 23.2314 20.1282 23.2744 20.2416C23.3174 20.355 23.3339 20.4768 23.3226 20.5975C23.3113 20.7183 23.2726 20.8349 23.2093 20.9384Z" fill="white"/>
</g>
<defs>
<clipPath id="clip0_13_413">
<rect width="35" height="35" fill="white"/>
</clipPath>
</defs>
</svg>
